<svg width="20" height="20" viewBox="0 0 20 20" fill="none" xmlns="http://www.w3.org/2000/svg">
<path d="M1.66651 9.99984C1.6636 7.86308 2.48437 5.80741 3.95818 4.26026C4.73582 3.43968 5.67273 2.7864 6.71157 2.34042C7.7504 1.89444 8.86932 1.66512 9.99985 1.66651M13.3332 2.35984C14.2822 2.77507 15.1456 3.36328 15.8794 4.09443C16.6583 4.86785 17.2761 5.78796 17.6973 6.80157C18.1185 7.81519 18.3346 8.90221 18.3332 9.99984C18.3332 11.0257 18.1478 12.0086 17.8082 12.9165M9.99985 18.3332C11.0913 18.3346 12.1724 18.1209 13.1812 17.7043C14.1901 17.2877 15.107 16.6764 15.8794 15.9053" stroke="white" stroke-width="2" stroke-linecap="round" stroke-linejoin="round"/>
</svg>
