<svg width="18" height="18" viewBox="0 0 18 18" fill="none" xmlns="http://www.w3.org/2000/svg">
<path fill-rule="evenodd" clip-rule="evenodd" d="M2.33317 8.99984C2.33329 7.71688 2.7036 6.46121 3.39966 5.38349C4.09572 4.30577 5.08797 3.45179 6.25734 2.92402C7.42672 2.39624 8.72354 2.21709 9.9922 2.40806C11.2609 2.59904 12.4475 3.15202 13.4097 4.00066C14.3718 4.84931 15.0687 5.95755 15.4166 7.19243C15.7646 8.4273 15.7488 9.73634 15.3713 10.9625C14.9937 12.1886 14.2703 13.2798 13.288 14.105C12.3056 14.9302 11.1061 15.4545 9.83317 15.6148V10.6665H11.4998C11.7209 10.6665 11.9328 10.5787 12.0891 10.4224C12.2454 10.2661 12.3332 10.0542 12.3332 9.83317C12.3332 9.61216 12.2454 9.4002 12.0891 9.24391C11.9328 9.08764 11.7209 8.99984 11.4998 8.99984H9.83317V7.33317C9.83317 7.11216 9.92097 6.9002 10.0772 6.74392C10.2335 6.58763 10.4455 6.49984 10.6665 6.49984H11.0832C11.3042 6.49984 11.5161 6.41204 11.6724 6.25576C11.8287 6.09948 11.9165 5.88752 11.9165 5.6665C11.9165 5.44549 11.8287 5.23353 11.6724 5.07725C11.5161 4.92097 11.3042 4.83317 11.0832 4.83317H10.6665C10.0035 4.83317 9.36758 5.09656 8.89874 5.5654C8.4299 6.03424 8.1665 6.67013 8.1665 7.33317V8.99984H6.49984C6.27882 8.99984 6.06686 9.08764 5.91058 9.24391C5.7543 9.4002 5.6665 9.61216 5.6665 9.83317C5.6665 10.0542 5.7543 10.2661 5.91058 10.4224C6.06686 10.5787 6.27882 10.6665 6.49984 10.6665H8.1665V15.6148C6.55542 15.4117 5.07385 14.6276 3.99984 13.4096C2.92583 12.1917 2.3332 10.6237 2.33317 8.99984ZM8.99984 17.3332C13.6023 17.3332 17.3332 13.6023 17.3332 8.99984C17.3332 4.39734 13.6023 0.666504 8.99984 0.666504C4.39734 0.666504 0.666504 4.39734 0.666504 8.99984C0.666504 13.6023 4.39734 17.3332 8.99984 17.3332Z" fill="white"/>
</svg>
